HIERARCHY
ROOT Hips
{
	OFFSET 0 0 0
	CHANNELS 6 Xposition Yposition Zposition Zrotation Yrotation Xrotation
	JOINT LeftThigh
	{
		OFFSET 8.209213 0 -5.776854
		CHANNELS 3 Zrotation Yrotation Xrotation
		JOINT LeftLeg
		{
			OFFSET 0 0 -41.350112
			CHANNELS 3 Zrotation Yrotation Xrotation
			JOINT LeftFoot
			{
				OFFSET 0 0 -38.420225
				CHANNELS 3 Zrotation Yrotation Xrotation
				End Site
				{
					OFFSET 0 -13.011281 -4.889596
				}
			}
		}
	}
	JOINT RightThigh
	{
		OFFSET -8.209213 0 -5.776854
		CHANNELS 3 Zrotation Yrotation Xrotation
		JOINT RightLeg
		{
			OFFSET 0 0 -41.350112
			CHANNELS 3 Zrotation Yrotation Xrotation
			JOINT RightFoot
			{
				OFFSET 0 0 -38.420225
				CHANNELS 3 Zrotation Yrotation Xrotation
				End Site
				{
					OFFSET 0 -13.011281 -4.889596
				}
			}
		}
	}
	JOINT SpineLow
	{
		OFFSET 0 0 4.606742
		CHANNELS 3 Zrotation Yrotation Xrotation
		JOINT SpineMid
		{
			OFFSET 0 0 12.592067
			CHANNELS 3 Zrotation Yrotation Xrotation
			JOINT Chest
			{
				OFFSET 0 0 12.592067
				CHANNELS 3 Zrotation Yrotation Xrotation
				JOINT LeftShoulder
				{
					OFFSET 7.370787 1.382022 9.213483
					CHANNELS 3 Zrotation Yrotation Xrotation
					JOINT LeftArm
					{
						OFFSET 8.937079 0 4.146067
						CHANNELS 3 Zrotation Yrotation Xrotation
						JOINT LeftForearm
						{
							OFFSET 0 0 25.158337
							CHANNELS 3 Zrotation Yrotation Xrotation
							JOINT LeftHand
							{
								OFFSET 0 0 24.597236
								CHANNELS 3 Zrotation Yrotation Xrotation
							}
						}
					}
				}
				JOINT RightShoulder
				{
					OFFSET -7.370787 1.382022 9.213483
					CHANNELS 3 Zrotation Yrotation Xrotation
					JOINT RightArm
					{
						OFFSET -8.937079 0 4.146067
						CHANNELS 3 Zrotation Yrotation Xrotation
						JOINT RightForearm
						{
							OFFSET 0 0 -25.158337
							CHANNELS 3 Zrotation Yrotation Xrotation
							JOINT RightHand
							{
								OFFSET 0 0 -24.597236
								CHANNELS 3 Zrotation Yrotation Xrotation
							}
						}
					}
				}
				JOINT Neck
				{
					OFFSET 0 0 14.741573
					CHANNELS 3 Zrotation Yrotation Xrotation
					JOINT Head
					{
						OFFSET 0 0 11.05618
						CHANNELS 3 Zrotation Yrotation Xrotation
						End Site
						{
							OFFSET 0 0 7.325843
						}
					}
				}
			}
		}
	}
}
MOTION
Frames: 8
Frame Time: 0.01
-13.921782 89.9557589156875 -12.098946 179.468839 28.410132 87.713115 2.865154 -12.698957 7.993604 -4.182479 0.927983 -5.246421 -0.505132 -0.210342 0.748642 -0.404303 12.076247 8.866863 -6.768891 0.153542 -2.182023 1.336499 -0.076643 0.790088 0.254715 -0.08333 0.126204 0.695803 -0.229099 0.344084 0.695803 -0.229099 0.344084 -6.032975 5.91186 16.123556 92.53828 30.374619 149.898224 -14.219827 0.462439 31.591781 77.236658 -4.29571 -11.934275 4.670731 -12.890673 11.621917 59.083083 46.501326 -2.831485 -10.087528 8.493729 -33.955278 78.838594 -14.477629 1.495783 -2.014274 -1.018284 4.137459 -1.503853 -0.777402 3.099697
-13.921329 89.9614258165606 -12.081198 179.49529 28.378904 87.719748 2.638696 -12.679865 8.030171 -4.05231 0.901196 -5.243941 -0.477373 -0.22863 0.739013 -0.476561 12.070775 8.849737 -6.7114 0.121862 -2.163079 1.330066 -0.082324 0.792066 0.254523 -0.083647 0.127557 0.695271 -0.229979 0.34778 0.695271 -0.229979 0.34778 -6.04683 5.864013 16.095686 92.506225 30.30153 149.883547 -14.340471 0.499931 31.589379 77.194575 -4.296169 -11.991042 4.620349 -12.867995 11.585796 58.932635 46.472148 -2.81878 -10.044535 8.489542 -34.005882 78.881164 -14.484539 1.522565 -2.025301 -1.025739 4.128271 -1.512088 -0.783037 3.092761
-13.846254 89.9655859284218 -12.159204 179.538008 28.426999 87.757467 2.396767 -12.667932 8.098435 -3.849634 0.871341 -5.276176 -0.410358 -0.2483 0.727839 -0.575288 12.050657 8.859554 -6.692783 0.086314 -2.136033 1.4244 -0.079438 0.730999 0.242385 -0.084767 0.131328 0.662075 -0.233015 0.358119 0.662075 -0.233015 0.358119 -5.993681 5.839602 16.074585 92.4896 30.322901 149.922532 -14.604303 0.584024 31.530794 77.176635 -4.273843 -12.001846 4.585412 -12.836297 11.5667 59.038858 46.378131 -2.675405 -9.961383 8.478698 -34.179073 78.906613 -14.439857 1.615755 -2.022477 -1.026483 4.120413 -1.509977 -0.78355 3.086871
-13.842473 89.9671543394697 -12.136179 179.55744 28.412248 87.771258 2.460376 -12.692707 8.061969 -3.965923 0.84923 -5.263488 -0.395867 -0.264446 0.717411 -0.589386 12.039425 8.838138 -6.710825 0.055724 -2.119217 1.4314 -0.083661 0.723662 0.241356 -0.084223 0.133077 0.65926 -0.23154 0.362909 0.65926 -0.23154 0.362909 -5.999688 5.801741 16.026081 92.627393 30.31295 149.924631 -14.579676 0.622715 31.612888 77.111908 -4.26243 -12.042413 4.550011 -12.812619 11.517244 58.9386 46.360128 -2.630473 -9.899271 8.480103 -34.269334 78.943939 -14.477083 1.660547 -2.022475 -1.039952 4.098127 -1.509921 -0.793579 3.070109
-13.805679 89.9667406473231 -12.142176 179.592058 28.447278 87.799677 2.58377 -12.739973 8.027221 -4.116393 0.817633 -5.246526 -0.302545 -0.288819 0.69684 -0.569625 12.000646 8.82439 -6.790793 0.028689 -2.088249 1.534587 -0.086581 0.671121 0.21969 -0.084818 0.141632 0.600003 -0.233124 0.386364 0.600003 -0.233124 0.386364 -5.904432 5.798537 15.968893 92.858793 30.440581 149.991893 -14.60066 0.714584 31.631607 77.095988 -4.258443 -11.999884 4.585575 -12.767473 11.460846 59.069901 46.279767 -2.49423 -9.885007 8.452629 -34.377217 79.008973 -14.342883 1.668496 -1.950023 -1.048645 4.061154 -1.455584 -0.799493 3.042472
-13.783896 89.9656163082801 -12.107293 179.611511 28.431098 87.796782 2.879667 -12.809529 7.947485 -4.402716 0.805243 -5.218848 -0.313553 -0.304723 0.687121 -0.562203 11.962126 8.830566 -6.848254 0.014372 -2.084659 1.548318 -0.085376 0.657415 0.216972 -0.084815 0.144248 0.592567 -0.233123 0.393524 0.592567 -0.233123 0.393524 -5.910987 5.765499 15.924403 93.040891 30.465496 150.004813 -14.520555 0.764611 31.713753 77.054855 -4.239612 -12.001593 4.549875 -12.738849 11.422721 58.987861 46.263805 -2.439933 -9.870747 8.446767 -34.495755 79.030076 -14.371083 1.680064 -1.942312 -1.062861 4.04758 -1.449728 -0.810061 3.032256
-13.770495 89.9651349920683 -12.049191 179.652344 28.461583 87.810837 3.25846 -12.901169 7.853543 -4.729881 0.773997 -5.185136 -0.268793 -0.324666 0.675421 -0.492646 11.892079 8.817178 -6.901797 0.003272 -2.09206 1.574433 -0.080304 0.650907 0.204343 -0.088611 0.147771 0.558009 -0.243455 0.403166 0.558009 -0.243455 0.403166 -5.889951 5.775794 15.914766 93.354603 30.637507 150.085644 -14.406457 0.826283 31.759939 77.078489 -4.216664 -11.937474 4.51036 -12.681119 11.419608 59.112619 46.165466 -2.317556 -9.849955 8.396015 -34.673224 79.042745 -14.274832 1.726082 -1.896479 -1.067954 4.044814 -1.415323 -0.813569 3.030243
-13.733648 89.9626085369708 -12.005246 179.679371 28.463972 87.799829 3.683587 -13.005186 7.758503 -5.071841 0.777195 -5.155229 -0.309542 -0.341958 0.666735 -0.464855 11.828914 8.836796 -6.949633 -0.003052 -2.09517 1.580737 -0.07556 0.63783 0.20577 -0.090005 0.146376 0.561906 -0.247262 0.399336 0.561906 -0.247262 0.399336 -5.913081 5.745969 15.91346 93.47214 30.66354 150.090981 -14.34113 0.835872 31.795155 77.048271 -4.197315 -11.942585 4.452309 -12.654837 11.419871 59.015254 46.150973 -2.288282 -9.859778 8.381825 -34.791969 79.06805 -14.275288 1.701887 -1.888303 -1.076889 4.063887 -1.409098 -0.820275 3.044532
